# xmcd CD database file
#
# Track frame offsets:
#	150
#	17250
#	36560
#	55705
#	72145
#	95840
#	116082
#	136392
#	155777
#	174142
#
# Disc length: 2576 seconds
#
# Revision: 1
# Processed by: cddbd v1.5PL3 Copyright (c) Steve Scherf et al.
# Submitted via: CDex 1.51
#
DISCID=830a0e0a
DTITLE=Danny Jung - Right On Time
DYEAR=2004
DGENRE=Jazz
TTITLE0=Right On Time
TTITLE1=The First Time
TTITLE2=Forever (Korea Only)
TTITLE3=Alright
TTITLE4=Addictive Love
TTITLE5=For Your Love
TTITLE6=Dreams Of Heaven
TTITLE7=Now That You're Gone
TTITLE8=Biggest Part Of Me
TTITLE9=Forever
EXTD=YEAR: 2004
EXTT0=
EXTT1=
EXTT2=
EXTT3=
EXTT4=
EXTT5=
EXTT6=
EXTT7=
EXTT8=
EXTT9=
PLAYORDER=
